<svg width="50" height="21" viewBox="0 0 50 21" fill="none" xmlns="http://www.w3.org/2000/svg">
<path d="M1 11C1 11 23.2353 -11.5 49 11" stroke="black" stroke-width="0.5"/>
<path d="M1 10C1 10 23.2353 32.5 49 10" stroke="black" stroke-width="0.5"/>
<path d="M30.75 10.5C30.75 11.6463 30.1311 12.7032 29.0926 13.482C28.0541 14.2609 26.608 14.75 25 14.75C23.392 14.75 21.9459 14.2609 20.9074 13.482C19.8689 12.7032 19.25 11.6463 19.25 10.5C19.25 9.35369 19.8689 8.29684 20.9074 7.51802C21.9459 6.73914 23.392 6.25 25 6.25C26.608 6.25 28.0541 6.73914 29.0926 7.51802C30.1311 8.29684 30.75 9.35369 30.75 10.5Z" stroke="black" stroke-width="0.5"/>
</svg>
