<svg width="50" height="29" viewBox="0 0 50 29" fill="none" xmlns="http://www.w3.org/2000/svg">
<path d="M1 16C1 16 23.2353 -6.49998 49 16" stroke="black" stroke-width="0.5"/>
<path d="M1 15C1 15 23.2353 37.5 49 15" stroke="black" stroke-width="0.5"/>
<line y1="-0.25" x2="53.96" y2="-0.25" transform="matrix(0.854833 -0.518903 0.685964 0.727636 3 29)" stroke="black" stroke-width="0.5"/>
<path d="M30.75 15.5C30.75 16.6463 30.1311 17.7032 29.0926 18.482C28.0541 19.2609 26.608 19.75 25 19.75C23.392 19.75 21.9459 19.2609 20.9074 18.482C19.8689 17.7032 19.25 16.6463 19.25 15.5C19.25 14.3537 19.8689 13.2968 20.9074 12.518C21.9459 11.7391 23.392 11.25 25 11.25C26.608 11.25 28.0541 11.7391 29.0926 12.518C30.1311 13.2968 30.75 14.3537 30.75 15.5Z" stroke="black" stroke-width="0.5"/>
</svg>
