<svg width="143" height="127" viewBox="0 0 143 127" fill="none" xmlns="http://www.w3.org/2000/svg">
<path d="M31.6347 9.20885C34.6844 10.5951 37.4568 12.813 40.2292 17.8034C34.9613 21.4079 31.6347 23.9031 27.553 27.7251C24.8494 31.1836 20.8219 36.0975 18.6039 40.8149C12.7817 38.3197 12.6573 37.5469 10.8031 36.0975C7.30471 33.3627 4.18746 24.1801 9.73261 15.3084C17.4952 6.15916 27.5923 7.3714 31.6347 9.20885Z" fill="black"/>
<path d="M133.66 34.4383C131.961 37.3252 128.534 39.4354 123.279 41.6676C120.249 36.0497 118.118 32.4791 114.746 28.018C111.591 24.9657 107.128 20.4436 102.67 17.7417C103.995 11.6027 106.517 11.4549 108.154 9.76348C111.241 6.57217 120.729 5.155 128.968 11.6026C137.819 19.7443 135.913 30.6116 133.66 34.4383Z" fill="black"/>
<path d="M17.0659 68.2775C15.1988 61.2413 15.2125 53.9373 17.106 46.9062C19.0001 39.8728 22.7272 33.2913 28.0128 27.6507C33.2985 22.01 40.007 17.4552 47.6416 14.3257C55.2763 11.1961 63.64 9.57261 72.1121 9.57628C80.5843 9.57994 88.9461 11.2107 96.577 14.3468C104.208 17.483 110.911 22.0436 116.19 27.6889C121.469 33.334 125.188 39.9187 127.074 46.9538C128.961 53.9948 129.272 61.8725 127.09 68.3222C125.997 71.551 123.73 77.6428 116.011 83.0018C108.288 88.3641 95.0896 93.0043 72.1104 93.2814C49.1433 93.5582 35.3805 87.2897 27.3626 80.9671C23.3525 77.8049 20.7763 74.6266 19.2034 72.2412C18.4168 71.0484 17.8811 70.0538 17.5425 69.3585C17.3731 69.0108 17.2531 68.738 17.1755 68.5527C17.1368 68.46 17.1086 68.3893 17.0903 68.3419C17.0811 68.3183 17.0744 68.3005 17.07 68.2887L17.0659 68.2775Z" fill="white" stroke="black" stroke-width="0.3"/>
<path d="M44.0821 39.3145C53.4256 39.3145 60.3017 42.8771 61.8352 49.1724C62.0222 50.3245 61.5919 52.0323 60.5583 54.004C59.5311 55.9636 57.9482 58.1063 55.956 60.0847C51.962 64.0511 46.4021 67.2824 40.4885 67.148C35.9073 67.0439 32.6943 66.0698 30.4704 64.6526C28.2533 63.2397 26.9866 61.3661 26.3266 59.3947C25.6637 57.4146 25.6101 55.3246 25.8458 53.5001C26.0813 51.6777 26.6003 50.1578 27.05 49.3184C29.2364 45.632 31.6049 43.1432 34.3496 41.5702C37.0956 39.9963 40.261 39.3144 44.0821 39.3145Z" fill="black" stroke="black"/>
<path d="M102.519 66.8748L102.564 66.8687L102.609 66.8708C107.125 67.076 110.254 66.3541 112.4 65.1375C114.535 63.9274 115.738 62.2048 116.37 60.3152C117.638 56.5223 116.603 52.0589 115.978 49.8199C114.202 46.6831 112.307 44.1464 109.675 42.3831C107.035 40.6148 103.603 39.5913 98.6993 39.5913C93.8052 39.5913 89.462 40.8649 86.3574 42.7751C83.234 44.6969 81.4556 47.197 81.4556 49.6266C81.4556 51.3798 82.1252 53.4237 83.326 55.5018C84.5235 57.574 86.2305 59.6472 88.2573 61.4519C92.3264 65.0751 97.5932 67.5406 102.519 66.8748Z" fill="black" stroke="black"/>
<ellipse cx="55" cy="51" rx="4" ry="3" fill="white"/>
<ellipse cx="87.1733" cy="50.686" rx="4" ry="3" fill="white"/>
<g filter="url(#filter0_f_437_17)">
<ellipse cx="37.1508" cy="67.6475" rx="8.31734" ry="3.88142" fill="#EFD9CB"/>
</g>
<g filter="url(#filter1_f_437_17)">
<ellipse cx="102.58" cy="68.2022" rx="8.31734" ry="3.88142" fill="#EFD9CB"/>
</g>
<path d="M77.3512 62.9342C77.3512 64.5977 72.9153 67.0929 72.0836 67.0929C70.6974 67.0929 66.5387 64.9247 66.5387 62.9342C66.5387 60.9437 69.3275 60.7163 72.0836 60.7163C74.8397 60.7163 77.3512 60.9437 77.3512 62.9342Z" fill="black"/>
<path d="M83.6819 114.495C80.4429 109.467 83.4253 97.1069 101.294 83.8134C112.666 76.4871 122.104 81.48 125.047 87.3392C128.04 95.3243 121.693 102.382 110.321 109.708C102.636 114.659 87.7185 122.165 82.3494 121.871C78.2537 121.647 86.7222 116.62 83.6819 114.495Z" fill="black"/>
<path d="M60.8244 114.696C64.4134 109.912 62.3194 97.3704 45.4431 82.8372C34.6215 74.7189 25.0876 79.877 21.4986 84.6612C17.9907 91.8847 23.7726 99.9049 34.5942 108.023C41.9068 113.509 56.2515 122.059 61.6279 122.148C65.7293 122.216 57.6404 116.599 60.8244 114.696Z" fill="black"/>
<path d="M64.9758 75.7949C64.9758 75.7949 68.0645 81.2244 71.4381 82.0722C74.4208 82.8219 79.2519 80.3986 79.2519 80.3986" stroke="black" stroke-width="0.5"/>
<defs>
<filter id="filter0_f_437_17" x="26.8335" y="61.7661" width="20.6346" height="11.7627" filterUnits="userSpaceOnUse" color-interpolation-filters="sRGB">
<feFlood flood-opacity="0" result="BackgroundImageFix"/>
<feBlend mode="normal" in="SourceGraphic" in2="BackgroundImageFix" result="shape"/>
<feGaussianBlur stdDeviation="1" result="effect1_foregroundBlur_437_17"/>
</filter>
<filter id="filter1_f_437_17" x="92.2631" y="62.3208" width="20.6346" height="11.7627" filterUnits="userSpaceOnUse" color-interpolation-filters="sRGB">
<feFlood flood-opacity="0" result="BackgroundImageFix"/>
<feBlend mode="normal" in="SourceGraphic" in2="BackgroundImageFix" result="shape"/>
<feGaussianBlur stdDeviation="1" result="effect1_foregroundBlur_437_17"/>
</filter>
</defs>
</svg>
