<svg width="320" height="318" viewBox="0 0 320 318" fill="none" xmlns="http://www.w3.org/2000/svg">
<rect x="237.633" y="177.239" width="8.18458" height="41.7443" rx="4.09229" fill="#9EB81D" stroke="black" stroke-width="0.5"/>
<rect x="237.633" y="211.035" width="8.18458" height="41.7443" rx="4.09229" fill="#9EB81D" stroke="black" stroke-width="0.5"/>
<rect x="237.633" y="244.83" width="8.18458" height="41.7443" rx="4.09229" fill="#9EB81D" stroke="black" stroke-width="0.5"/>
<rect x="237.633" y="278.626" width="8.18458" height="41.7443" rx="4.09229" fill="#9EB81D" stroke="black" stroke-width="0.5"/>
<rect x="237.633" y="298.626" width="8.18458" height="41.7443" rx="4.09229" fill="#9EB81D" stroke="black" stroke-width="0.5"/>
<rect x="265.25" y="271.251" width="8.18458" height="41.7443" rx="4.09229" fill="#9EB81D" stroke="black" stroke-width="0.5"/>
<rect x="265.25" y="305.047" width="8.18458" height="41.7443" rx="4.09229" fill="#9EB81D" stroke="black" stroke-width="0.5"/>
<rect x="281.25" y="255.251" width="8.18458" height="41.7443" rx="4.09229" fill="#9EB81D" stroke="black" stroke-width="0.5"/>
<rect x="281.25" y="289.047" width="8.18458" height="41.7443" rx="4.09229" fill="#9EB81D" stroke="black" stroke-width="0.5"/>
<rect x="301.25" y="267.251" width="8.18458" height="41.7443" rx="4.09229" fill="#9EB81D" stroke="black" stroke-width="0.5"/>
<rect x="301.25" y="301.047" width="8.18458" height="41.7443" rx="4.09229" fill="#9EB81D" stroke="black" stroke-width="0.5"/>
<mask id="path-12-inside-1_883_397" fill="white">
<path fill-rule="evenodd" clip-rule="evenodd" d="M36.5312 72.4544C41.9556 67.3057 47.4305 59.1155 51.9678 48.6714C56.6553 37.8817 59.536 26.5423 60.4976 16.5505C55.0126 21.5503 49.4687 29.7057 44.9101 40.1987C40.2063 51.026 37.3772 62.4418 36.5312 72.4544Z"/>
</mask>
<path fill-rule="evenodd" clip-rule="evenodd" d="M36.5312 72.4544C41.9556 67.3057 47.4305 59.1155 51.9678 48.6714C56.6553 37.8817 59.536 26.5423 60.4976 16.5505C55.0126 21.5503 49.4687 29.7057 44.9101 40.1987C40.2063 51.026 37.3772 62.4418 36.5312 72.4544Z" fill="#9EBB13"/>
<path d="M36.5312 72.4543L36.1362 72.3015L36.0198 73.6799L36.7794 72.9589L36.5312 72.4543ZM60.4976 16.5505L60.8918 16.7124L61.0239 15.3398L60.2544 16.0412L60.4976 16.5505ZM44.9101 40.1986L44.5658 39.8361L44.9101 40.1986ZM51.6235 48.3088C47.1068 58.7054 41.6626 66.8436 36.283 71.9497L36.7794 72.9589C42.2485 67.7678 47.7542 59.5254 52.3122 49.0338L51.6235 48.3088ZM60.1034 16.3885C59.15 26.2952 56.2898 37.5678 51.6235 48.3088L52.3122 49.0338C57.0209 38.1954 59.9219 26.7892 60.8918 16.7124L60.1034 16.3885ZM45.2545 40.5611C49.7917 30.1173 55.3033 22.0162 60.7408 17.0597L60.2544 16.0412C54.7219 21.0843 49.1458 29.2939 44.5658 39.8361L45.2545 40.5611ZM36.9262 72.6071C37.7646 62.684 40.5726 51.338 45.2545 40.5611L44.5658 39.8361C39.8401 50.7138 36.9897 62.1995 36.1362 72.3015L36.9262 72.6071Z" fill="black" mask="url(#path-12-inside-1_883_397)"/>
<mask id="path-14-inside-2_883_397" fill="white">
<path fill-rule="evenodd" clip-rule="evenodd" d="M282.352 290.142C282.541 287.144 281.913 283.236 280.394 278.921C278.823 274.464 276.571 270.338 274.123 267.134C273.875 270.106 274.473 274.022 276 278.357C277.575 282.83 279.864 286.964 282.352 290.142Z"/>
</mask>
<path fill-rule="evenodd" clip-rule="evenodd" d="M282.352 290.142C282.541 287.144 281.913 283.236 280.394 278.921C278.823 274.464 276.571 270.338 274.123 267.134C273.875 270.106 274.473 274.022 276 278.357C277.575 282.83 279.864 286.964 282.352 290.142Z" fill="#9EBB13"/>
<path d="M282.352 290.142L281.959 290.299L282.811 291.388L282.877 290.343L282.352 290.142ZM274.123 267.135L274.522 266.985L273.684 265.889L273.598 266.927L274.123 267.135ZM276 278.357L275.501 278.326L276 278.357ZM279.895 278.89C281.397 283.156 282.012 287.005 281.827 289.942L282.877 290.343C283.07 287.283 282.43 283.316 280.893 278.953L279.895 278.89ZM273.724 267.284C276.12 270.42 278.342 274.483 279.895 278.89L280.893 278.953C279.305 274.445 277.022 270.257 274.522 266.985L273.724 267.284ZM276.499 278.388C274.989 274.104 274.405 270.249 274.647 267.342L273.598 266.927C273.345 269.962 273.956 273.94 275.501 278.326L276.499 278.388ZM282.745 289.986C280.312 286.878 278.056 282.81 276.499 278.388L275.501 278.326C277.094 282.851 279.415 287.05 281.959 290.299L282.745 289.986Z" fill="black" mask="url(#path-14-inside-2_883_397)"/>
<mask id="path-16-inside-3_883_397" fill="white">
<path fill-rule="evenodd" clip-rule="evenodd" d="M308.595 267.203C310.72 265.08 312.835 261.734 314.549 257.493C316.321 253.112 317.361 248.528 317.644 244.505C315.493 246.57 313.35 249.902 311.628 254.163C309.85 258.56 308.831 263.173 308.595 267.203Z"/>
</mask>
<path fill-rule="evenodd" clip-rule="evenodd" d="M308.595 267.203C310.72 265.08 312.835 261.734 314.549 257.493C316.321 253.112 317.361 248.528 317.644 244.505C315.493 246.57 313.35 249.902 311.628 254.163C309.85 258.56 308.831 263.173 308.595 267.203Z" fill="#9EBB13"/>
<path d="M308.595 267.203L308.196 267.061L308.115 268.442L308.856 267.701L308.595 267.203ZM317.644 244.506L318.042 244.657L318.139 243.282L317.388 244.003L317.644 244.506ZM311.628 254.163L311.274 253.81L311.628 254.163ZM314.196 257.14C312.501 261.333 310.415 264.625 308.334 266.705L308.856 267.701C311.025 265.534 313.169 262.136 314.903 257.847L314.196 257.14ZM317.246 244.354C316.969 248.291 315.947 252.807 314.196 257.14L314.903 257.847C316.694 253.416 317.753 248.765 318.042 244.657L317.246 244.354ZM311.981 254.517C313.684 250.305 315.795 247.028 317.9 245.008L317.388 244.003C315.19 246.112 313.017 249.499 311.274 253.81L311.981 254.517ZM308.993 267.346C309.225 263.406 310.224 258.863 311.981 254.517L311.274 253.81C309.476 258.257 308.438 262.941 308.196 267.061L308.993 267.346Z" fill="black" mask="url(#path-16-inside-3_883_397)"/>
<mask id="path-18-inside-4_883_397" fill="white">
<path fill-rule="evenodd" clip-rule="evenodd" d="M284.934 186.268C280.633 190.606 276.411 196.293 273.057 202.606C269.592 209.129 267.65 215.197 267.248 219.938C271.605 215.642 275.886 209.944 279.256 203.601C282.733 197.056 284.629 190.974 284.934 186.268Z"/>
</mask>
<path fill-rule="evenodd" clip-rule="evenodd" d="M284.934 186.268C280.633 190.606 276.411 196.293 273.057 202.606C269.592 209.129 267.65 215.197 267.248 219.938C271.605 215.642 275.886 209.944 279.256 203.601C282.733 197.056 284.629 190.974 284.934 186.268Z" fill="#9EBB13"/>
<path d="M284.934 186.268L285.484 186.141L285.554 185.06L284.55 186.072L284.934 186.268ZM267.248 219.938L266.698 220.059L266.606 221.145L267.625 220.14L267.248 219.938ZM273.555 202.65C276.886 196.38 281.072 190.746 285.318 186.464L284.55 186.072C280.194 190.465 275.936 196.206 272.559 202.563L273.555 202.65ZM267.797 219.817C268.194 215.138 270.114 209.127 273.555 202.65L272.559 202.563C269.07 209.13 267.105 215.255 266.698 220.059L267.797 219.817ZM278.758 203.557C275.412 209.855 271.169 215.498 266.87 219.736L267.625 220.14C272.041 215.787 276.36 210.033 279.754 203.644L278.758 203.557ZM284.384 186.396C284.084 191.037 282.21 197.059 278.758 203.557L279.754 203.644C283.256 197.053 285.175 190.912 285.484 186.141L284.384 186.396Z" fill="black" mask="url(#path-18-inside-4_883_397)"/>
<mask id="path-20-inside-5_883_397" fill="white">
<path fill-rule="evenodd" clip-rule="evenodd" d="M27.6891 74.2712C22.2647 69.1226 16.7898 60.9323 12.2524 50.4881C7.56483 39.6981 4.68416 28.3584 3.72259 18.3665C9.20758 23.3663 14.7515 31.5216 19.3101 42.0147C24.0141 52.8423 26.8432 64.2585 27.6891 74.2712Z"/>
</mask>
<path fill-rule="evenodd" clip-rule="evenodd" d="M27.6891 74.2712C22.2647 69.1226 16.7898 60.9323 12.2524 50.4881C7.56483 39.6981 4.68416 28.3584 3.72259 18.3665C9.20758 23.3663 14.7515 31.5216 19.3101 42.0147C24.0141 52.8423 26.8432 64.2585 27.6891 74.2712Z" fill="#9EBB13"/>
<path d="M27.6892 74.2712L28.0842 74.1184L28.2006 75.4968L27.441 74.7758L27.6892 74.2712ZM3.72267 18.3665L3.3285 18.5284L3.19642 17.1559L3.96586 17.8573L3.72267 18.3665ZM19.3102 42.0148L18.9658 42.3773L19.3102 42.0148ZM12.5969 50.1257C17.1136 60.5223 22.5578 68.6605 27.9374 73.7666L27.441 74.7758C21.9719 69.5847 16.4662 61.3423 11.9081 50.8506L12.5969 50.1257ZM4.11684 18.2046C5.07021 28.1115 7.93045 39.3844 12.5969 50.1257L11.9081 50.8506C7.19936 40.012 4.29825 28.6055 3.3285 18.5284L4.11684 18.2046ZM18.9658 42.3773C14.4286 31.9334 8.91697 23.8322 3.47948 18.8758L3.96586 17.8573C9.49835 22.9003 15.0746 31.11 19.6546 41.6523L18.9658 42.3773ZM27.2942 74.424C26.4559 64.5008 23.6479 53.1544 18.9658 42.3773L19.6546 41.6523C24.3804 52.5302 27.2307 64.0162 28.0842 74.1184L27.2942 74.424Z" fill="black" mask="url(#path-20-inside-5_883_397)"/>
<mask id="path-22-inside-6_883_397" fill="white">
<path fill-rule="evenodd" clip-rule="evenodd" d="M238.753 177.146C235.471 174.031 232.158 169.076 229.413 162.757C226.577 156.229 224.834 149.369 224.253 143.324C227.571 146.348 230.925 151.283 233.683 157.631C236.529 164.182 238.241 171.088 238.753 177.146Z"/>
</mask>
<path fill-rule="evenodd" clip-rule="evenodd" d="M238.753 177.146C235.471 174.031 232.158 169.076 229.413 162.757C226.577 156.229 224.834 149.369 224.253 143.324C227.571 146.348 230.925 151.283 233.683 157.631C236.529 164.182 238.241 171.088 238.753 177.146Z" fill="#9EBB13"/>
<path d="M238.753 177.146L239.148 176.993L239.264 178.372L238.504 177.651L238.753 177.146ZM224.253 143.324L223.859 143.486L223.726 142.113L224.496 142.814L224.253 143.324ZM229.758 162.395C232.482 168.666 235.764 173.569 239.001 176.642L238.504 177.651C235.178 174.493 231.835 169.486 229.069 163.12L229.758 162.395ZM224.647 143.162C225.22 149.122 226.943 155.916 229.758 162.395L229.069 163.12C226.212 156.543 224.448 149.616 223.859 143.486L224.647 143.162ZM233.339 157.993C230.602 151.694 227.28 146.814 224.009 143.833L224.496 142.814C227.862 145.883 231.248 150.871 234.028 157.268L233.339 157.993ZM238.358 177.299C237.853 171.331 236.163 164.494 233.339 157.993L234.028 157.268C236.895 163.869 238.628 170.846 239.148 176.993L238.358 177.299Z" fill="black" mask="url(#path-22-inside-6_883_397)"/>
<mask id="path-24-inside-7_883_397" fill="white">
<path fill-rule="evenodd" clip-rule="evenodd" d="M17.2815 121.58C13.896 118.366 10.479 113.255 7.64718 106.736C4.72162 100.002 2.92378 92.925 2.32363 86.6889C5.7469 89.8093 9.20695 94.8992 12.0521 101.448C14.9878 108.206 16.7535 115.331 17.2815 121.58Z"/>
</mask>
<path fill-rule="evenodd" clip-rule="evenodd" d="M17.2815 121.58C13.896 118.366 10.479 113.255 7.64718 106.736C4.72162 100.002 2.92378 92.925 2.32363 86.6889C5.7469 89.8093 9.20695 94.8992 12.0521 101.448C14.9878 108.206 16.7535 115.331 17.2815 121.58Z" fill="#9EBB13"/>
<path d="M17.2814 121.579L17.6764 121.426L17.7929 122.805L17.0332 122.084L17.2814 121.579ZM2.32362 86.6886L1.92946 86.8506L1.79736 85.478L2.56682 86.1794L2.32362 86.6886ZM12.0521 101.448L11.7077 101.81L12.0521 101.448ZM7.99155 106.373C10.8027 112.844 14.189 117.904 17.5296 121.075L17.0332 122.084C13.6031 118.828 10.1553 113.664 7.30279 107.098L7.99155 106.373ZM2.71779 86.5267C3.30974 92.6776 5.08716 99.688 7.99155 106.373L7.30279 107.098C4.35607 100.316 2.53779 93.1717 1.92946 86.8506L2.71779 86.5267ZM11.7077 101.81C8.88394 95.3106 5.4562 90.275 2.08043 87.1979L2.56682 86.1794C6.03758 89.3431 9.52994 94.4872 12.3964 101.085L11.7077 101.81ZM16.8865 121.732C16.3661 115.572 14.6215 108.517 11.7077 101.81L12.3964 101.085C15.3541 107.893 17.1409 115.088 17.6764 121.426L16.8865 121.732Z" fill="black" mask="url(#path-24-inside-7_883_397)"/>
<mask id="path-26-inside-8_883_397" fill="white">
<path fill-rule="evenodd" clip-rule="evenodd" d="M242.32 175.335C242.47 170.864 244.081 165.051 247.198 158.643C250.418 152.023 254.691 145.908 259.141 141.169C259.089 145.6 257.526 151.427 254.394 157.865C251.163 164.508 246.831 170.635 242.32 175.335Z"/>
</mask>
<path fill-rule="evenodd" clip-rule="evenodd" d="M242.32 175.335C242.47 170.864 244.081 165.051 247.198 158.643C250.418 152.023 254.691 145.908 259.141 141.169C259.089 145.6 257.526 151.427 254.394 157.865C251.163 164.508 246.831 170.635 242.32 175.335Z" fill="#9EBB13"/>
<path d="M242.32 175.335L242.686 175.497L241.743 176.48L241.775 175.528L242.32 175.335ZM259.141 141.169L258.768 141.015L259.697 140.025L259.686 140.97L259.141 141.169ZM254.394 157.865L253.895 157.889L254.394 157.865ZM247.697 158.619C244.604 164.978 243.013 170.733 242.865 175.143L241.775 175.528C241.927 170.996 243.558 165.124 246.698 158.667L247.697 158.619ZM259.515 141.323C255.126 145.996 250.893 152.049 247.697 158.619L246.698 158.667C249.943 151.997 254.255 145.82 258.768 141.015L259.515 141.323ZM253.895 157.889C257.002 151.502 258.545 145.736 258.596 141.368L259.686 140.97C259.634 145.464 258.05 151.352 254.894 157.841L253.895 157.889ZM241.953 175.174C246.398 170.542 250.689 164.48 253.895 157.889L254.894 157.841C251.638 164.535 247.264 170.727 242.686 175.497L241.953 175.174Z" fill="black" mask="url(#path-26-inside-8_883_397)"/>
<mask id="path-28-inside-9_883_397" fill="white">
<path fill-rule="evenodd" clip-rule="evenodd" d="M31.723 67.2428C34.3337 58.2268 35.8831 46.6555 35.8412 34.0474C35.7979 21.0222 34.0638 9.13082 31.2342 0.0380067C28.5195 8.9844 26.9006 20.5875 26.9426 33.2547C26.9861 46.3252 28.7904 58.2345 31.723 67.2428Z"/>
</mask>
<path fill-rule="evenodd" clip-rule="evenodd" d="M31.723 67.2428C34.3337 58.2268 35.8831 46.6555 35.8412 34.0474C35.7979 21.0222 34.0638 9.13082 31.2342 0.0380067C28.5195 8.9844 26.9006 20.5875 26.9426 33.2547C26.9861 46.3252 28.7904 58.2345 31.723 67.2428Z" fill="#9EBB13"/>
<path d="M35.8413 34.0476L35.3413 34.0516L35.8413 34.0476ZM31.7231 67.2429L31.2476 67.3997L31.7503 68.9441L32.2033 67.3799L31.7231 67.2429ZM31.2343 0.0381596L31.7118 -0.112444L31.229 -1.66394L30.7559 -0.10499L31.2343 0.0381596ZM26.9427 33.2549L26.4427 33.2589L26.9427 33.2549ZM35.3413 34.0516C35.383 46.6214 33.8379 58.1441 31.2429 67.1059L32.2033 67.3799C34.8296 58.3098 36.3833 46.6898 36.3412 34.0436L35.3413 34.0516ZM30.7568 0.188763C33.5688 9.22491 35.2981 21.0654 35.3413 34.0516L36.3412 34.0436C36.2978 20.9793 34.5589 9.03704 31.7118 -0.112444L30.7568 0.188763ZM27.4427 33.2509C27.4007 20.6232 29.0152 9.07098 31.7127 0.181309L30.7559 -0.10499C28.024 8.89814 26.4005 20.5522 26.4427 33.2589L27.4427 33.2509ZM32.1986 67.0861C29.2853 58.1371 27.486 46.2811 27.4427 33.2509L26.4427 33.2589C26.4863 46.3697 28.2957 58.3322 31.2476 67.3997L32.1986 67.0861Z" fill="black" mask="url(#path-28-inside-9_883_397)"/>
<mask id="path-30-inside-10_883_397" fill="white">
<path fill-rule="evenodd" clip-rule="evenodd" d="M240.197 169.96C241.904 164.066 242.917 156.501 242.89 148.258C242.862 139.743 241.728 131.969 239.878 126.025C238.103 131.873 237.045 139.459 237.072 147.74C237.101 156.285 238.28 164.071 240.197 169.96Z"/>
</mask>
<path fill-rule="evenodd" clip-rule="evenodd" d="M240.197 169.96C241.904 164.066 242.917 156.501 242.89 148.258C242.862 139.743 241.728 131.969 239.878 126.025C238.103 131.873 237.045 139.459 237.072 147.74C237.101 156.285 238.28 164.071 240.197 169.96Z" fill="#9EBB13"/>
<path d="M242.89 148.258L242.39 148.262L242.89 148.258ZM240.197 169.96L239.722 170.117L240.225 171.661L240.678 170.097L240.197 169.96ZM239.878 126.025L240.355 125.874L239.873 124.323L239.4 125.882L239.878 126.025ZM237.072 147.74L236.572 147.744L237.072 147.74ZM242.39 148.262C242.417 156.467 241.408 163.983 239.717 169.823L240.678 170.097C242.4 164.149 243.417 156.535 243.39 148.254L242.39 148.262ZM239.4 126.175C241.233 132.063 242.362 139.786 242.39 148.262L243.39 148.254C243.361 139.7 242.223 131.875 240.355 125.874L239.4 126.175ZM237.572 147.736C237.545 139.494 238.599 131.96 240.356 126.168L239.4 125.882C237.608 131.787 236.545 139.424 236.572 147.744L237.572 147.736ZM240.673 169.803C238.775 163.973 237.6 156.241 237.572 147.736L236.572 147.744C236.601 156.329 237.785 164.168 239.722 170.117L240.673 169.803Z" fill="black" mask="url(#path-30-inside-10_883_397)"/>
<rect x="0.272537" y="0.158974" width="8.51794" height="40.9487" rx="4.25897" transform="matrix(0.935946 -0.352144 0.154202 0.988039 29.4302 77.727)" fill="#9EB81D" stroke="black" stroke-width="0.5"/>
<rect x="35.4001" y="109.409" width="8.18458" height="41.6382" rx="4.09229" fill="#9EB81D" stroke="black" stroke-width="0.5"/>
<rect x="35.4001" y="143.12" width="8.18458" height="41.6382" rx="4.09229" fill="#9EB81D" stroke="black" stroke-width="0.5"/>
<rect x="35.4001" y="176.831" width="8.18458" height="41.6382" rx="4.09229" fill="#9EB81D" stroke="black" stroke-width="0.5"/>
<path d="M43.7498 206.502V233.752H35.2498V206.502C35.2498 204.155 37.1525 202.252 39.4998 202.252C41.847 202.252 43.7498 204.155 43.7498 206.502Z" fill="#9EB81D" stroke="black" stroke-width="0.5"/>
<path d="M43.7498 225.502V234.409L35.2498 244.326V225.502C35.2498 223.155 37.1525 221.252 39.4998 221.252C41.847 221.252 43.7498 223.155 43.7498 225.502Z" fill="#9EB81D" stroke="black" stroke-width="0.5"/>
<rect x="-0.273288" y="0.159774" width="8.60761" height="40.9599" rx="4.3038" transform="matrix(-0.937243 -0.348677 -0.155909 0.987771 266.496 216.084)" fill="#9EB81D" stroke="black" stroke-width="0.5"/>
<rect x="-0.25" y="0.25" width="8.28308" height="41.6382" rx="4.14154" transform="matrix(-1 0 0 1 260.723 247.707)" fill="#9EB81D" stroke="black" stroke-width="0.5"/>
<rect x="-0.25" y="0.25" width="8.28308" height="41.6382" rx="4.14154" transform="matrix(-1 0 0 1 260.723 281.418)" fill="#9EB81D" stroke="black" stroke-width="0.5"/>
<rect x="-0.25" y="0.25" width="8.28308" height="41.6382" rx="4.14154" transform="matrix(-1 0 0 1 260.723 315.129)" fill="#9EB81D" stroke="black" stroke-width="0.5"/>
<ellipse cx="4.01937" cy="4.01953" rx="4.01937" ry="4.01953" transform="matrix(-1 0 0 1 99.7437 180.351)" fill="black"/>
<path d="M93.0091 172.312C93.0091 180.801 96.6336 186.673 102.368 190.446C108.131 194.238 116.06 195.929 124.664 195.929C133.268 195.929 140.993 194.237 146.551 190.451C152.082 186.683 155.515 180.812 155.515 172.312C155.515 163.782 152.054 154.848 146.447 148.049C140.84 141.25 133.132 136.636 124.664 136.636C116.193 136.636 108.282 141.253 102.474 148.056C96.6656 154.858 93.0091 163.789 93.0091 172.312Z" fill="white" stroke="black"/>
<mask id="path-44-inside-11_883_397" fill="white">
<path fill-rule="evenodd" clip-rule="evenodd" d="M135.074 151.742C137.098 148.241 140.516 145.913 144.409 145.824C139.393 140.689 132.336 136.94 124.304 136.94C115.266 136.94 107.502 141.687 102.486 147.815C103.452 147.481 104.473 147.301 105.531 147.301C108.811 147.301 111.748 149.025 113.717 151.742H135.074Z"/>
</mask>
<path fill-rule="evenodd" clip-rule="evenodd" d="M135.074 151.742C137.098 148.241 140.516 145.913 144.409 145.824C139.393 140.689 132.336 136.94 124.304 136.94C115.266 136.94 107.502 141.687 102.486 147.815C103.452 147.481 104.473 147.301 105.531 147.301C108.811 147.301 111.748 149.025 113.717 151.742H135.074Z" fill="black"/>
<path d="M135.075 151.742L135.94 152.242L135.652 152.742H135.075V151.742ZM144.409 145.824L145.124 145.125L146.732 146.771L144.432 146.823L144.409 145.824ZM102.486 147.815L102.813 148.76L99.4753 149.914L101.713 147.181L102.486 147.815ZM113.717 151.742V152.742H113.207L112.907 152.329L113.717 151.742ZM134.209 151.241C136.376 147.492 140.087 144.922 144.386 144.824L144.432 146.823C140.946 146.903 137.82 148.99 135.94 152.242L134.209 151.241ZM143.694 146.522C138.827 141.54 132.016 137.94 124.304 137.94V135.94C132.656 135.94 139.959 139.837 145.124 145.125L143.694 146.522ZM124.304 137.94C115.627 137.94 108.128 142.501 103.26 148.448L101.713 147.181C106.876 140.873 114.905 135.94 124.304 135.94V137.94ZM102.159 146.869C103.227 146.5 104.359 146.301 105.531 146.301V148.301C104.588 148.301 103.676 148.461 102.813 148.76L102.159 146.869ZM105.531 146.301C109.181 146.301 112.4 148.222 114.527 151.155L112.907 152.329C111.095 149.829 108.441 148.301 105.531 148.301V146.301ZM135.075 152.742H113.717V150.742H135.075V152.742Z" fill="black" mask="url(#path-44-inside-11_883_397)"/>
<ellipse cx="13.4688" cy="14.7504" rx="13.4688" ry="14.7504" transform="matrix(-0.914551 0.404471 0.404446 0.914562 92.6357 37.2561)" fill="black"/>
<path d="M70.8045 85.4904C70.8045 116.569 95.998 141.764 127.076 141.764C158.153 141.764 183.347 116.569 183.347 85.4904C183.347 75.804 180.26 56.0703 174.504 50.1186C168.732 44.1494 160.28 51.969 152.8 46.903C143.808 40.8132 133.126 38.8637 121.449 38.8637C90.3709 38.8637 70.8045 54.4115 70.8045 85.4904Z" fill="white"/>
<path d="M70.8045 85.4904C70.8045 116.569 95.998 141.764 127.076 141.764C158.153 141.764 183.347 116.569 183.347 85.4904C183.347 75.804 180.26 56.0703 174.504 50.1186C168.732 44.1494 160.28 51.969 152.8 46.903C143.808 40.8132 133.126 38.8637 121.449 38.8637C90.3709 38.8637 70.8045 54.4115 70.8045 85.4904Z" fill="white"/>
<path d="M152.8 46.903C143.808 40.8132 133.126 38.8637 121.449 38.8637C90.3709 38.8637 70.8045 54.4115 70.8045 85.4904C70.8045 116.569 95.998 141.764 127.076 141.764C158.153 141.764 183.347 116.569 183.347 85.4904C183.347 75.804 180.26 56.0703 174.504 50.1186M152.8 46.903C160.28 51.969 168.732 44.1494 174.504 50.1186M152.8 46.903L174.504 50.1186" stroke="black"/>
<path fill-rule="evenodd" clip-rule="evenodd" d="M177.768 56.2195C176.763 53.8258 175.625 51.8461 174.357 50.5351C171.4 47.4772 167.74 48.0379 163.867 48.6312C162.249 48.8791 160.593 49.1327 158.937 49.1302C159.487 51.6195 162.089 54.5125 165.843 56.4759C170.957 59.1511 176.271 59.0872 177.711 56.3333C177.731 56.2957 177.75 56.2578 177.768 56.2195Z" fill="black"/>
<ellipse cx="12.2559" cy="15.6341" rx="12.2559" ry="15.6341" transform="matrix(-0.980786 0.195086 0.195072 0.980789 104.899 26.0015)" fill="black"/>
<ellipse cx="12.0581" cy="13.6664" rx="12.0581" ry="13.6664" transform="matrix(-1 0 0 1 136.722 143.372)" fill="black"/>
<path d="M106.46 193.263C106.46 197.623 115.384 197.689 126.005 197.689C136.625 197.689 144.919 197.623 144.919 193.263C144.919 188.903 130.925 185.394 120.305 185.394C109.685 185.394 106.46 188.903 106.46 193.263Z" fill="black"/>
<ellipse cx="13.1853" cy="6.85658" rx="13.1853" ry="6.85658" transform="matrix(-0.96233 0.271885 0.271866 0.962335 157.11 79.0593)" fill="#FFEADE"/>
<path d="M147.234 54.4253C137.789 46.546 128.816 44.1793 123.21 54.6938C117.604 65.2082 119.724 80.697 130.238 86.3032C140.752 91.9093 149.511 89.6132 155.117 79.0987C157.743 73.1069 156.309 69.5124 154.584 65.1678C153.128 61.5 151.16 58.7931 147.234 54.4253Z" fill="black"/>
<ellipse cx="4.01937" cy="4.01953" rx="4.01937" ry="4.01953" transform="matrix(-1 0 0 1 141.545 58.1577)" fill="white"/>
<rect x="1.24976" y="190.25" width="8.18458" height="41.7443" rx="4.09229" fill="#9EB81D" stroke="black" stroke-width="0.5"/>
<rect x="1.24976" y="224.046" width="8.18458" height="41.7443" rx="4.09229" fill="#9EB81D" stroke="black" stroke-width="0.5"/>
<rect x="1.24976" y="257.841" width="8.18458" height="41.7443" rx="4.09229" fill="#9EB81D" stroke="black" stroke-width="0.5"/>
<path d="M9.43433 277.565V291.922C9.43433 292.421 9.34309 292.916 9.16511 293.382C7.54487 297.625 1.24976 296.464 1.24976 291.922V277.565C1.24976 275.305 3.08194 273.473 5.34204 273.473C7.60215 273.473 9.43433 275.305 9.43433 277.565Z" fill="#9EB81D" stroke="black" stroke-width="0.5"/>
<path d="M1.24976 330.663V295.723C1.24976 293.376 3.15255 291.473 5.49976 291.473C7.84697 291.473 9.74976 293.376 9.74976 295.723V303.705L6.11296 330.986C6.0106 331.754 5.55003 332.428 4.87174 332.802C3.244 333.7 1.24976 332.522 1.24976 330.663Z" fill="#9EB81D" stroke="black" stroke-width="0.5"/>
<path d="M25.1332 125.528V153.286C25.1332 157.621 21.6855 161.15 17.3826 161.282V125.528C17.3826 123.388 19.1176 121.653 21.2579 121.653C23.3981 121.653 25.1332 123.388 25.1332 125.528Z" fill="#9EB81D" stroke="black" stroke-width="0.5"/>
<path d="M25.1332 157.635V185.393C25.1332 189.728 21.6855 193.257 17.3826 193.389V157.635C17.3826 155.495 19.1176 153.76 21.2579 153.76C23.3981 153.76 25.1332 155.495 25.1332 157.635Z" fill="#9EB81D" stroke="black" stroke-width="0.5"/>
<path d="M25.1332 189.741V217.499C25.1332 221.834 21.6855 225.363 17.3826 225.495V189.741C17.3826 187.601 19.1176 185.866 21.2579 185.866C23.3981 185.866 25.1332 187.601 25.1332 189.741Z" fill="#9EB81D" stroke="black" stroke-width="0.5"/>
<path d="M25.1332 221.848V249.605C25.1332 253.94 21.6855 257.47 17.3826 257.602V221.848C17.3826 219.708 19.1176 217.973 21.2579 217.973C23.3981 217.973 25.1332 219.708 25.1332 221.848Z" fill="#9EB81D" stroke="black" stroke-width="0.5"/>
<path d="M25.1332 245.929V263.319C25.1332 264.722 24.8307 266.107 24.2464 267.382L17.3826 282.357V245.929C17.3826 243.789 19.1176 242.053 21.2579 242.053C23.3981 242.053 25.1332 243.788 25.1332 245.929Z" fill="#9EB81D" stroke="black" stroke-width="0.5"/>
<path d="M225.48 273.657C240.316 310.342 220.719 351.894 182.539 362.296C170.048 365.699 155.512 368 139.04 368C75.7919 368 4 350.145 4 350.145C4 273.858 59.1886 196 122.437 196C167.718 196 206.883 227.67 225.48 273.657Z" fill="url(#paint0_linear_883_397)" fill-opacity="0.63"/>
<path d="M237.5 322C237.5 322 187.11 322 125 322C62.8904 322 12.5 322 12.5 322C12.5 252.385 62.8904 196 125 196C187.11 196 237.5 252.385 237.5 322Z" stroke="black" stroke-width="0.5"/>
<defs>
<linearGradient id="paint0_linear_883_397" x1="176.356" y1="256" x2="251.566" y2="222.773" gradientUnits="userSpaceOnUse">
<stop stop-color="#D4E779"/>
<stop offset="1" stop-color="#9EB81D" stop-opacity="0"/>
</linearGradient>
</defs>
</svg>
