<svg width="113" height="68" viewBox="0 0 113 68" fill="none" xmlns="http://www.w3.org/2000/svg">
<path d="M71.1879 41.7666L69.3924 43.4523C69.2473 43.5886 69.0221 43.5912 68.8738 43.4584V43.4584C68.7297 43.3292 68.7043 43.1129 68.8147 42.9539L70.1848 40.9796M71.1879 41.7666L70.1848 40.9796M71.1879 41.7666L74.8889 39.9985M70.1848 40.9796L71.4149 36.9745M71.4149 36.9745L74.8889 39.9985M71.4149 36.9745L73.9483 33.8389M74.8889 39.9985L77.7226 36.9456M73.9483 33.8389L77.7226 36.9456M73.9483 33.8389V33.8389C73.7498 33.64 73.7373 33.3219 73.9196 33.108L89.6471 14.6517M77.7226 36.9456V36.9456C77.9663 37.1082 78.293 37.0633 78.4838 36.841L94.337 18.3694M94.337 18.3694L104.029 6.74942M94.337 18.3694L89.6471 14.6517M89.6471 14.6517L100.37 1.71416C100.695 1.32125 101.281 1.27437 101.665 1.61045V1.61045M105.174 4.28573V4.28573C105.463 4.5496 105.493 4.99408 105.242 5.29456L104.859 5.75342M105.174 4.28573L105.61 3.48691C105.845 3.05622 105.733 2.51854 105.345 2.2177L103.79 1.01078C103.449 0.746554 102.978 0.730197 102.62 0.970194L101.665 1.61045M105.174 4.28573L101.665 1.61045M104.859 5.75342L105.583 6.19992C106.646 6.85652 106.853 8.31682 106.015 9.24359L97.9311 18.1774C97.642 18.4969 97.1443 18.5091 96.84 18.2041V18.2041C96.5611 17.9246 96.5454 17.4773 96.8041 17.179L104.44 8.3736C104.838 7.91501 104.738 7.21076 104.229 6.87997L104.029 6.74942M104.859 5.75342L104.029 6.74942" stroke="#9EB81D"/>
<path d="M66 48V48C60.6443 52.8599 53.2991 54.8881 46.2085 53.465L33.6722 50.9488C33.1889 50.8518 32.6991 50.7898 32.2068 50.7632L27.7868 50.5248C23.6954 50.3041 19.6208 51.1965 15.9963 53.1072V53.1072C12.7386 54.8246 9.98618 57.3632 8.01169 60.4718L6.58463 62.7184C6.12029 63.4495 6.122 64.3834 6.58901 65.1128L6.79101 65.4282C7.56522 66.6373 9.32777 66.6486 10.1174 65.4495V65.4495C10.9162 64.2365 10.183 62.6045 8.74559 62.3962L6.1589 62.0212C5.63633 61.9455 5.10353 61.9842 4.59739 62.1347L4.04795 62.2981C3.52732 62.4529 3.0291 62.6749 2.56585 62.9584L1 63.917" stroke="#9EB81D" stroke-linecap="round"/>
</svg>
