<svg xmlns="http://www.w3.org/2000/svg" width="94" height="118" fill="none"><path fill="#000" d="M86.014 99.09c-5.672 3.223-11.126-5.58-18.77-19.034-7.645-13.456-13.5-24.558-7.828-27.78 5.672-3.223 13.151 6.008 20.796 19.464 7.645 13.455 11.474 24.128 5.802 27.35Z"/><path fill="#000" d="M68.617 72.063c0 6.523-10.347 6.917-25.823 6.917-15.475 0-28.02-.394-28.02-6.918 0-6.523 11.72-8.466 27.196-8.466s26.647 1.943 26.647 8.467Z"/><path fill="#000" d="M7.005 92.848c5.397 3.664 11.535-4.675 20.228-17.479 8.692-12.803 15.414-23.403 10.016-27.068-5.397-3.664-13.588 4.942-22.281 17.745S1.608 89.183 7.005 92.848Z"/><ellipse cx="15.428" cy="13.782" fill="#000" rx="11.049" ry="8.524" transform="rotate(-43.324 15.428 13.782)"/><ellipse cx="11.049" cy="8.524" fill="#000" rx="11.049" ry="8.524" transform="scale(-1 1) rotate(-43.324 -24.597 117.566)"/><path fill="#fff" stroke="#000" stroke-width=".7" d="M85.132 44.882c0 5.46-1.104 9.68-3.076 12.943-1.97 3.26-4.825 5.594-8.373 7.257-7.119 3.336-16.988 3.96-27.978 3.96-10.99 0-20.859-.624-27.977-3.96-3.549-1.663-6.403-3.996-8.374-7.257-1.972-3.263-3.075-7.482-3.075-12.943 0-21.838 17.652-39.54 39.426-39.54s39.427 17.702 39.427 39.54Z"/><path fill="#000" d="M58.671 42.953c-1.663-6.893-.597-12.135 6.268-12.35 6.866-.216 14.925 4.75 15.14 11.616.216 6.866-3.8 10.888-10.665 11.103-3.767-.17-5.259-1.83-7.065-3.83-1.524-1.688-2.421-3.396-3.678-6.54ZM33.907 42.851c1.631-6.9.54-12.137-6.325-12.321-6.867-.183-14.902 4.822-15.086 11.688-.183 6.866 3.85 10.87 10.717 11.053 3.766-.189 5.25-1.854 7.047-3.863 1.516-1.695 2.406-3.407 3.647-6.557Z"/><ellipse cx="26.209" cy="45.056" fill="#fff" rx="2.342" ry="2.411" transform="rotate(30 26.21 45.056)"/><ellipse cx="65.986" cy="45.056" fill="#fff" rx="2.342" ry="2.411" transform="rotate(30 65.986 45.056)"/><path fill="#000" d="M42.642 52.888c.008-2.037 1.656-1.192 3.694-1.184 2.037.008 3.692-.823 3.684 1.214a3.69 3.69 0 0 1-7.378-.03Z"/><path stroke="#000" stroke-linecap="round" stroke-width=".7" d="M46.239 55.768v0c0 3.415-3.16 5.955-6.496 5.22l-.746-.165a5.96 5.96 0 0 1-2.332-1.081l-.659-.503M46.239 55.768v0c0 3.415 3.16 5.955 6.495 5.22l.746-.165a5.96 5.96 0 0 0 2.332-1.081l.66-.503"/><ellipse cx="77.317" cy="52.587" fill="#FFEADE" rx="5.595" ry="3.163" transform="rotate(-2.443 77.317 52.587)"/><ellipse cx="16.074" cy="52.587" fill="#FFEADE" rx="5.595" ry="3.163" transform="rotate(-2.443 16.074 52.587)"/><path fill="#fff" stroke="#000" stroke-width="1.023" d="M75.5 90.003c0 5.727-2.354 10.194-7.164 13.256-4.845 3.085-12.222 4.767-22.288 4.767-10.1 0-17.646-1.023-22.658-3.782-2.492-1.372-4.352-3.17-5.594-5.487-1.244-2.323-1.885-5.2-1.885-8.754 0-6.5 2.528-11.082 7.496-14.074 5.014-3.02 12.563-4.446 22.641-4.446 10.06 0 17.436 1.804 22.28 5.01 4.816 3.186 7.172 7.781 7.172 13.51Z"/><path fill="#000" d="M35.86 109.935c-2.926 4.227-15.095 1.48-21.574-3.003-6.478-4.482-1.175-7.21 1.75-11.438 2.925-4.227 6.196-1.193 12.675 3.29 6.478 4.482 10.073 6.923 7.148 11.151ZM56.2 109.935c2.924 4.227 15.094 1.48 21.572-3.003 6.479-4.482 1.176-7.21-1.75-11.438-2.924-4.227-6.195-1.193-12.674 3.29-6.479 4.482-10.074 6.923-7.149 11.151Z"/><rect width="82.3" height="5.3" x="6.35" y="107.35" fill="#FFFCFC" stroke="#000" stroke-width=".7" rx="2.208"/><path fill="#FFFCFC" stroke="#000" stroke-width=".7" d="M7.447 74.64a2.208 2.208 0 0 1 2.207-2.29h74.693a2.208 2.208 0 0 1 2.207 2.289l-1.18 32.325a2.208 2.208 0 0 1-2.206 2.128H10.844a2.208 2.208 0 0 1-2.207-2.127l-1.19-32.326Z"/><path fill="#fff" d="M46.155 82.24v1.03-1.03ZM36.068 93.086l.161-.014c.29-.027.576-.082.854-.166l.124-.037"/><path stroke="#EF7C3B" stroke-linecap="round" stroke-width=".7" d="m36.068 93.086.161-.014c.29-.027.576-.082.854-.166l.124-.037m8.948-10.63v1.031-1.03Z"/><path fill="#fff" d="M47.782 102.523v.651-.651Z"/><path stroke="#EF7C3B" stroke-linecap="round" stroke-width=".7" d="M47.782 102.523v.651"/><path fill="#fff" stroke="#EF7C3B" stroke-width=".7" d="m38.79 85.802.144-.166a9.34 9.34 0 0 1 4.493-2.854l1.414-.367a11.155 11.155 0 0 1 4.102-.282l.066.007c.566.067 1.125.173 1.675.319l.188.05c.957.254 1.885.604 2.772 1.044l.193.097.344.214a7.306 7.306 0 0 1 2.937 3.52l.153.387.272 1.03.014.074c.136.709.204 1.429.204 2.15l-.054 1.085a13.692 13.692 0 0 1-.731 3.272l-.032.09-.138.317c-.38.871-.85 1.7-1.405 2.472l-.158.22a10.813 10.813 0 0 1-2.866 2.743l-.993.648-.172.104a8.76 8.76 0 0 1-5.06 1.252l-.604-.071a13.13 13.13 0 0 1-2.448-.526l-1.2-.434-.871-.434-.872-.542a9.648 9.648 0 0 1-3.691-5.006l-.072-.225a9.235 9.235 0 0 1-.325-1.385l-.055-.76v-.017c-.036-.746 0-1.494.105-2.233l.04-.277a9.648 9.648 0 0 1 1.423-3.828l.322-.504c.266-.416.562-.812.886-1.184Z"/><path fill="#fff" d="m49.185 102.793-.218-1.088-.382-1.469-.327-1.36-.055-.327-.11-.544-.108-.544a.479.479 0 0 1 .077-.398l.224-.307c.054-.074.1-.152.136-.235l.382-.855.045-.15a6.648 6.648 0 0 0 .282-1.917v-.544c0-.181.013-.362.038-.541l.017-.112.054-.707.055-.435.054-.544.037-.309c.048-.41.127-.816.236-1.214l.164-.599.273-.707.175-.565a.985.985 0 0 0 .043-.29v-.165a.285.285 0 0 0-.285-.285h-.01c-.09 0-.175.04-.232.108l-.182.218-.219.326-.6 1.197-.164.435-.164.436-.408 1.474c-.004.016-.028.013-.028-.004v-.003l.218-1.087.11-.49.15-.716c.045-.21.068-.425.068-.64 0-.147.01-.294.03-.44l.024-.162.107-1.122a.156.156 0 0 1 .01-.039c.055-.152-.13-.278-.251-.17l-.02.018a.149.149 0 0 0-.017.017l-.16.19c-.25.3-.449.64-.587 1.006l-.119.318-.218.544-.219.762-.163.761-.157 1.35a.031.031 0 0 1-.062-.003v-1.619l.055-.653v-.598l.055-.87v-.85c0-.014 0-.028.004-.042a.214.214 0 0 0-.333-.218l-.061.043a.245.245 0 0 0-.075.083l-.3.548-.273.708-.163.598-.164.762-.055.544-.054.652v1.163a.06.06 0 0 1-.114.024l-.092-.216a1.273 1.273 0 0 1-.091-.322l-.085-.594-.11-.925-.054-1.034.054-.924v-.397a.039.039 0 0 0-.065-.027l-.154.153a.563.563 0 0 0-.147.255l-.234.886-.164.762-.087.55a6.22 6.22 0 0 0-.076.973l-.055.598-.054.707v.757a.157.157 0 0 1-.294.079l-.51-.878a1.333 1.333 0 0 0-.163-.224l-.298-.33a.335.335 0 0 0-.527.038l-.11.163a.703.703 0 0 0-.118.391v.08c0 .094.014.188.04.278l.124.408.163.38.164.436.218.598.328.816.382.925.008.022c.14.419.34.814.593 1.175.25.286.566.509.92.65l.007.003.017.005a.978.978 0 0 0 .705-.066l.196-.098a.047.047 0 0 1 .068.038l.106 1.263.055.49.054.544.055.544.054.38.055.762.055.599.109.598.054.761"/><path stroke="#9EBB13" stroke-width=".7" d="m49.185 102.793-.218-1.088-.382-1.469-.327-1.36-.055-.327-.11-.544-.108-.544a.479.479 0 0 1 .077-.398l.224-.307c.054-.074.1-.152.136-.235l.382-.855.045-.15a6.648 6.648 0 0 0 .282-1.917v-.544c0-.181.013-.362.038-.541l.017-.112.054-.707.055-.435.054-.544.037-.309c.048-.41.127-.816.236-1.214l.164-.599.273-.707.175-.565a.985.985 0 0 0 .043-.29v-.165a.285.285 0 0 0-.285-.285h-.01c-.09 0-.175.04-.232.108l-.182.218-.219.326-.6 1.197-.164.435-.164.436-.408 1.474c-.004.016-.028.013-.028-.004v-.003l.218-1.087.11-.49.15-.716c.045-.21.068-.425.068-.64 0-.147.01-.294.03-.44l.024-.162.107-1.122a.156.156 0 0 1 .01-.039c.055-.152-.13-.278-.251-.17l-.02.018a.149.149 0 0 0-.017.017l-.16.19c-.25.3-.449.64-.587 1.006l-.119.318-.218.544-.219.762-.163.761-.157 1.35a.031.031 0 0 1-.062-.003v-1.619l.055-.653v-.598l.055-.87v-.85c0-.014 0-.028.004-.042a.214.214 0 0 0-.333-.218l-.061.043a.245.245 0 0 0-.075.083l-.3.548-.273.708-.163.598-.164.762-.055.544-.054.652v1.163a.06.06 0 0 1-.114.024l-.092-.216a1.273 1.273 0 0 1-.091-.322l-.085-.594-.11-.925-.054-1.034.054-.924v-.397a.039.039 0 0 0-.065-.027l-.154.153a.563.563 0 0 0-.147.255l-.234.886-.164.762-.087.55a6.22 6.22 0 0 0-.076.973l-.055.598-.054.707v.757a.157.157 0 0 1-.294.079l-.51-.878a1.333 1.333 0 0 0-.163-.224l-.298-.33a.335.335 0 0 0-.527.038l-.11.163a.703.703 0 0 0-.118.391v.08c0 .094.014.188.04.278l.124.408.163.38.164.436.218.598.328.816.382.925.008.022c.14.419.34.814.593 1.175.25.286.566.509.92.65l.007.003.017.005a.978.978 0 0 0 .705-.066l.196-.098a.047.047 0 0 1 .068.038l.106 1.263.055.49.054.544.055.544.054.38.055.762.055.599.109.598.054.761"/><path fill="#fff" d="M47.294 92.378H46.453a.247.247 0 0 0-.207.112l-.035.054-.016.032a1.21 1.21 0 0 0-.066.158c-.018.054-.04.107-.065.158l-.175.349a.044.044 0 0 1-.01.014.045.045 0 0 0 .028.078h.25a.341.341 0 0 1 .285.231l.011.032a.395.395 0 0 1 .017.177l-.017.127-.016.066c-.042.171-.118.332-.224.473l-.002.003-.109.112-.048.047a.537.537 0 0 1-.134.095l-.017.008a.281.281 0 0 1-.3-.03l-.023-.019a.337.337 0 0 1-.128-.264v-.057"/><path stroke="#EF7C3B" stroke-linecap="round" stroke-width=".7" d="M47.294 92.378H46.453a.247.247 0 0 0-.207.112l-.035.054-.016.032a1.21 1.21 0 0 0-.066.158c-.018.054-.04.107-.065.158l-.175.349a.044.044 0 0 1-.01.014.045.045 0 0 0 .028.078h.25a.341.341 0 0 1 .285.231l.011.032a.395.395 0 0 1 .017.177l-.017.127-.016.066c-.042.171-.118.332-.224.473l-.002.003-.109.112-.048.047a.537.537 0 0 1-.134.095l-.017.008a.281.281 0 0 1-.3-.03l-.023-.019a.337.337 0 0 1-.128-.264v-.057"/><path fill="#fff" stroke="#3B4A72" stroke-linecap="round" stroke-width=".7" d="M44.96 92.978h.068c.05 0 .1.019.138.053l.006.005a.195.195 0 0 1-.096.338l-.042.008a.217.217 0 0 1-.237-.126l-.007-.016a.186.186 0 0 1 .17-.262ZM47.455 92.87h.068c.05 0 .1.018.138.052l.006.006a.196.196 0 0 1-.096.337l-.043.008a.217.217 0 0 1-.236-.125l-.008-.017a.186.186 0 0 1 .17-.262Z"/><path fill="#fff" d="m47.132 95.798-.061.048a1.272 1.272 0 0 1-.382.21l-.061.02a.885.885 0 0 1-.458.03l-.148-.03-.014-.002a.922.922 0 0 1-.395-.183"/><path stroke="#3B4A72" stroke-linecap="round" stroke-width=".7" d="m47.132 95.798-.061.048a1.272 1.272 0 0 1-.382.21l-.061.02a.885.885 0 0 1-.458.03l-.148-.03-.014-.002a.922.922 0 0 1-.395-.183"/><path fill="#fff" d="m44.084 94.28.099.076a.2.2 0 0 1 .05.058l.028.047a.13.13 0 0 1-.206.157l-.023-.024a.163.163 0 0 1-.046-.114v-.03c0-.046.014-.091.039-.13l.026-.04"/><path stroke="#EFCEDF" stroke-linecap="round" stroke-width=".7" d="m44.084 94.28.099.076a.2.2 0 0 1 .05.058l.028.047a.13.13 0 0 1-.206.157l-.023-.024a.163.163 0 0 1-.046-.114v-.03c0-.046.014-.091.039-.13l.026-.04"/><path fill="#fff" stroke="#EFCEDF" stroke-linecap="round" stroke-width=".7" d="m47.768 94.35-.03.022a.07.07 0 0 0 .063.12l.144-.05.213-.053a.046.046 0 0 0 .008-.003c.041-.02.022-.083-.023-.077l-.198.025h-.129a.081.081 0 0 0-.048.015Z"/><path fill="#fff" d="M47.782 94.388h.326-.326Z"/><path stroke="#EFCEDF" stroke-linecap="round" stroke-width=".7" d="M47.782 94.388h.326"/></svg>