<svg xmlns="http://www.w3.org/2000/svg" width="263" height="309" fill="none"><ellipse cx="170.877" cy="296.038" fill="#E9E9E9" rx="90.759" ry="12.874"/><path fill="#000" stroke="#000" stroke-width=".3" d="M189.717 56.909c0 .408-.314.834-.967 1.251-.645.413-1.582.789-2.733 1.108-2.3.636-5.424 1.031-8.702 1.031-3.225 0-6.406-2.209-8.795-4.692-1.191-1.238-2.177-2.537-2.864-3.645a11.374 11.374 0 0 1-.793-1.483c-.184-.429-.272-.76-.272-.973 0-.427.277-.936.839-1.47.558-.53 1.374-1.064 2.401-1.54 2.054-.954 4.929-1.667 8.197-1.667 1.606 0 3.265.628 4.858 1.613 1.591.985 3.105 2.321 4.418 3.721 1.313 1.4 2.42 2.86 3.199 4.09.389.615.695 1.17.902 1.63.211.467.312.816.312 1.026ZM128.57 38.858l-.003.014v.014c0 4.863-1.316 7.29-3.44 8.524-1.071.622-2.36.949-3.822 1.12-1.461.17-3.084.183-4.818.183-1.669 0-3.099-.94-4.313-2.54-1.215-1.599-2.199-3.841-2.97-6.4-1.54-5.11-2.22-11.442-2.222-16.318.805-3.218 1.479-5.67 2.799-7.327 1.308-1.642 3.268-2.518 6.706-2.518 2.984 0 6.725 2.445 9.366 6.847 2.635 4.392 4.159 10.711 2.717 18.4Z"/><path fill="#D4E779" stroke="#000" stroke-width="2" d="M257.959 239.972c-1.423 3.96-4.569 8.329-11.308 10.223a60.118 60.118 0 0 1-.049-.548c.223-.192.417-.439.58-.673.387-.553.823-1.358 1.285-2.27.347-.685.715-1.441 1.104-2.241.68-1.398 1.427-2.931 2.245-4.461 1.282-2.399 2.654-4.614 4.033-6.007.688-.696 1.314-1.12 1.865-1.298.422-.137.821-.139 1.236.034l.002.016c.054.348.093.91.074 1.638a18.296 18.296 0 0 1-1.067 5.587ZM205.633 179.518c5.241.035 11.184 1.273 14.781 5.53.032.994.182 2.25.323 3.377l.045.359c.084.671.159 1.275.209 1.766-.305.005-.676-.005-1.114-.036-.94-.067-2.1-.222-3.402-.459a60.19 60.19 0 0 1-8.707-2.312c-2.994-1.046-5.794-2.319-7.794-3.728-1.766-1.244-2.68-2.427-2.856-3.49.41-.123 1.018-.272 1.789-.418a35.955 35.955 0 0 1 6.726-.589Z"/><mask id="a" fill="#fff"><path d="M261.964 145.737c-1.292 10.3-13.522 10.3-16.096 10.3-4.502 12.799-6.759 19.31-7.396 30.898-1.082-1.597-1.855-7.303-2.577-8.37.823-.919 1.604-4.183 3.214-10.298-10.622-5.15-9.809-20.779-8.69-22.528.749-1.171 10.869 7.499 9.581 18.761 1.092-1.657 3.822-8.211 4.907-9.75-1.615-14.483 15.545-11.622 17.057-9.013Z"/></mask><path fill="#D4E779" d="M261.964 145.737c-1.292 10.3-13.522 10.3-16.096 10.3-4.502 12.799-6.759 19.31-7.396 30.898-1.082-1.597-1.855-7.303-2.577-8.37.823-.919 1.604-4.183 3.214-10.298-10.622-5.15-9.809-20.779-8.69-22.528.749-1.171 10.869 7.499 9.581 18.761 1.092-1.657 3.822-8.211 4.907-9.75-1.615-14.483 15.545-11.622 17.057-9.013Z"/><path fill="#000" d="m261.964 145.737 1.984.249.084-.668-.338-.583-1.73 1.002Zm-23.492 41.198-1.656 1.122 3.327 4.913.326-5.925-1.997-.11Zm-2.577-8.37-1.49-1.335-1.042 1.163.876 1.294 1.656-1.122Zm9.012-23.815 1.634 1.152.437-.62-.084-.754-1.987.222ZM240 164.5l-1.987-.227a2 2 0 0 0 3.657 1.328L240 164.5Zm-9.581-18.761 1.685 1.078-1.685-1.078Zm8.69 22.528 1.934.509.419-1.591-1.481-.717-.872 1.799Zm6.759-12.23v-2h-1.417l-.47 1.336 1.887.664Zm-5.74 29.777c-.085-.126-.266-.522-.5-1.292a43.472 43.472 0 0 1-.634-2.434c-.203-.852-.412-1.762-.613-2.509-.101-.377-.21-.749-.327-1.08-.105-.296-.264-.702-.503-1.055l-3.312 2.243c-.059-.087-.036-.081.044.146.068.191.146.452.236.785.181.673.368 1.49.584 2.397.209.879.442 1.829.698 2.67.238.783.559 1.699 1.015 2.372l3.312-2.243Zm6.766-31.286c-.36-3.229.349-5.189 1.336-6.401 1.012-1.244 2.554-1.995 4.387-2.324 1.834-.33 3.796-.204 5.373.155.786.179 1.42.403 1.86.619.525.258.504.37.383.163l3.461-2.005c-.498-.86-1.387-1.408-2.082-1.749-.782-.384-1.724-.698-2.734-.928-2.016-.459-4.526-.631-6.969-.192-2.444.439-4.984 1.526-6.782 3.737-1.825 2.242-2.655 5.356-2.208 9.368l3.975-.443Zm-5.224 11.073c.65-.985 1.689-3.231 2.597-5.172.479-1.023.947-2.017 1.36-2.85.434-.873.745-1.437.914-1.677l-3.269-2.305c-.373.529-.81 1.363-1.227 2.203-.438.881-.925 1.917-1.4 2.933-1 2.135-1.872 3.995-2.315 4.667l3.34 2.201Zm-9.566-18.784c-.46.719-1.183.82-1.473.816-.256-.005-.384-.075-.314-.045.108.046.397.208.85.569.873.696 2.044 1.883 3.182 3.467 2.285 3.181 4.233 7.674 3.664 12.649l3.974.455c.719-6.287-1.749-11.761-4.389-15.437-1.325-1.845-2.743-3.31-3.938-4.262-.582-.464-1.195-.875-1.779-1.123a3.192 3.192 0 0 0-1.183-.273c-.52-.009-1.41.162-1.963 1.028l3.369 2.156Zm5.28 33.083c.447-.499.755-1.144.989-1.723.25-.621.497-1.379.752-2.247.511-1.733 1.121-4.127 1.918-7.154l-3.868-1.018c-.813 3.088-1.398 5.383-1.887 7.042-.243.826-.447 1.439-.625 1.88-.194.483-.293.59-.258.55l2.979 2.67Zm2.597-13.432c-4.515-2.19-6.737-6.67-7.661-11.144a25.562 25.562 0 0 1-.51-5.976 14.97 14.97 0 0 1 .194-1.997c.106-.59.192-.677.1-.534l-3.369-2.156c-.372.58-.557 1.364-.668 1.984a18.73 18.73 0 0 0-.254 2.552 29.509 29.509 0 0 0 .59 6.935c1.045 5.065 3.727 10.974 9.833 13.935l1.745-3.599Zm19.998-20.979c-.522 4.163-3.168 6.254-6.265 7.381-3.18 1.156-6.567 1.167-7.846 1.167v4c1.295 0 5.311.01 9.212-1.408 3.984-1.449 8.099-4.507 8.868-10.643l-3.969-.497Zm-15.998 9.884c-4.504 12.808-6.852 19.555-7.506 31.453l3.994.219c.62-11.278 2.787-17.553 7.285-30.345l-3.773-1.327Z" mask="url(#a)"/><path fill="#D4E779" stroke="#000" stroke-width="2" d="m245.874 255.497 1.231 40.937a32.053 32.053 0 0 1-2.606 1.296c-1.833.807-3.994 1.53-5.687 1.491-1.589-.036-3.602-.761-5.305-1.548a31.984 31.984 0 0 1-2.424-1.251l-1.228-41.124c.476.154 1.051.331 1.691.508 1.78.49 4.135 1.001 6.278 1.001 1.886 0 4.229-.424 6.05-.828a62.063 62.063 0 0 0 2-.482ZM238.193 191.54l.194 1.104c.359 2.048.855 4.913 1.4 8.176 1.09 6.529 2.374 14.638 3.159 20.994.778 6.302 1.501 14.412 2.03 20.954a1061.295 1061.295 0 0 1 .801 10.621l.005.073-.128.035a48.51 48.51 0 0 1-2.258.562c-1.833.409-4.07.789-5.872.748-1.682-.038-3.757-.493-5.459-.961a44.761 44.761 0 0 1-2.092-.63l-.152-.05.001-.098a433.606 433.606 0 0 0-.023-9.925c-.085-6.1-.327-13.701-.958-19.626-.635-5.957-2.011-13.477-3.222-19.488a437.339 437.339 0 0 0-1.853-8.725c.406.139.865.285 1.364.424 1.804.505 4.234.957 6.435.556 1.085-.197 2.127-.747 3.046-1.392.928-.651 1.791-1.442 2.521-2.193.39-.402.747-.796 1.061-1.159Z"/><path fill="#D4E779" stroke="#000" stroke-width="2" d="m222.694 135.118.292.909c.572 1.782 1.367 4.276 2.259 7.117 1.785 5.685 3.953 12.753 5.498 18.309 1.522 5.476 3.289 12.544 4.677 18.249a1175.845 1175.845 0 0 1 2.214 9.267l.072.307a24.964 24.964 0 0 1-2.349 2.599c-.774.74-1.637 1.452-2.512 1.968-.886.522-1.702.796-2.403.78-1.674-.038-3.583-.49-5.113-.954a33.09 33.09 0 0 1-1.861-.625l-.165-.062-.018-.17a347.866 347.866 0 0 0-1.157-9.343c-.789-5.729-1.921-12.854-3.291-18.342-1.332-5.336-3.6-11.975-5.525-17.258a355.618 355.618 0 0 0-2.898-7.67c.186.017.385.033.595.047 1.412.093 3.349.094 5.428-.284 1.095-.199 2.104-.757 2.973-1.412.875-.661 1.661-1.461 2.313-2.218.363-.422.689-.836.971-1.214Z"/><path fill="#D4E779" stroke="#000" stroke-width="2" d="m209.598 138.188-.019-.058a356.636 356.636 0 0 0-2.832-8.021c-1.822-4.968-4.247-11.227-6.643-16.337a198.488 198.488 0 0 0-8.533-16.171c1.114.076 2.578.003 4.342-.46 2.038-.537 3.733-2.095 4.862-3.39.39-.447.727-.88 1.003-1.257.434.658 1.029 1.58 1.761 2.758 1.639 2.638 3.961 6.561 6.685 11.689 2.653 4.995 5.616 11.637 7.922 17.05a457.365 457.365 0 0 1 3.646 8.82l.109.273a16.011 16.011 0 0 1-1.829 2.364c-1.347 1.43-3.131 2.732-5.16 2.843-1.76.096-3.248.051-4.293-.018a27.593 27.593 0 0 1-1.021-.085Z"/><path fill="#D4E779" stroke="#000" stroke-width="2" d="m157.276 43.755.116.123.15.078c3.555 1.854 8.049 5.7 12.839 10.52 4.768 4.799 9.756 10.487 14.292 15.948a455.144 455.144 0 0 1 11.551 14.532 432.522 432.522 0 0 1 4.368 5.825 14.662 14.662 0 0 1-1.615 2.22c-1.26 1.42-2.961 2.712-4.979 2.822-1.729.094-2.743-.064-3.288-.214a2.419 2.419 0 0 1-.492-.183l-.013-.007-.017-.019-.243-.255c-.213-.225-.527-.555-.928-.98a662.14 662.14 0 0 1-13.836-15.125c-3.922-4.43-7.985-9.168-11.36-13.425-3.395-4.283-6.031-8.002-7.164-10.418-.697-1.488-2.024-2.915-3.696-4.265-1.686-1.361-3.796-2.703-6.156-4.002-4.721-2.597-10.533-5.07-16.164-7.21-5.636-2.14-11.117-3.957-15.186-5.238a290.373 290.373 0 0 0-6.26-1.893l-.339-.097-.034-.023c-.111-.077-.3-.212-.584-.435-.57-.446-1.516-1.233-2.985-2.576-2.366-2.164-3.107-3.764-3.318-4.71a3.172 3.172 0 0 1-.075-.539 165.401 165.401 0 0 1 5.807.754c4.138.61 9.81 1.59 15.948 3.069 6.142 1.48 12.73 3.455 18.709 6.049 5.991 2.599 11.303 5.791 14.952 9.673Z"/><path fill="#000" stroke="#000" stroke-width=".3" d="M124.043 56.91v-.03l-.012-.028c-2.019-4.846-4.604-8.52-6.827-11.272-.856-1.06-1.66-1.984-2.355-2.784-.208-.239-.406-.466-.593-.683-.818-.951-1.416-1.686-1.697-2.249-.141-.281-.192-.499-.17-.668.021-.158.11-.297.312-.42.207-.127.524-.231.98-.308.453-.077 1.031-.125 1.75-.147 2.666-.084 7.209.185 14.37.608l1.805.106.141.008.017-.14c1.044-9.082 3.731-13.946 6.961-15.824 3.214-1.87 7.035-.816 10.452 2.121 3.414 2.935 6.387 7.725 7.864 13.227 1.477 5.5 1.456 11.7-1.101 17.456a2.319 2.319 0 0 0-.153.673c-.029.273-.043.6-.049.976-.005.338-.004.719-.004 1.14l.001.148c0 .48 0 1.013-.009 1.594-.036 2.326-.213 5.447-1.048 9.244-1.667 7.582-5.96 17.874-17.014 29.905-2.178-.024-4.115-1.207-5.803-3.356-1.706-2.173-3.145-5.32-4.306-9.207-2.32-7.77-3.512-18.456-3.512-30.09Z"/><path fill="#fff" stroke="#000" stroke-width=".3" d="M169.545 59.706c2.022 1.256 3.854 2.393 6.039 3.426 1.264 3.857 1.895 11.998.497 20.667-1.402 8.696-4.842 17.889-11.695 23.811-9.89-.004-20.059-.975-26.124-8.199 2.866-2.428 5.195-5.89 7.15-9.864 1.981-4.029 3.583-8.594 4.972-13.163.961-3.16 1.821-6.327 2.634-9.32.362-1.335.715-2.634 1.063-3.884 1.112-3.99 2.178-7.465 3.353-9.938 4.746 2.065 7.924 3.893 10.59 5.525.524.32 1.028.633 1.521.939Z"/><path fill="#000" stroke="#000" stroke-width=".3" d="M28.493 55.873c-2.255 4.188-2.906 5.97-3.232 7.276-.082.328-.143.623-.204.916-.177.859-.352 1.704-1.042 3.326-9.589 1.107-14.323-.418-16.677-3.276-1.183-1.436-1.78-3.225-2.08-5.23-.3-2.006-.3-4.214-.3-6.482 0-2.238.777-5.3 2.219-8.316 1.441-3.015 3.54-5.97 6.172-8 2.628-2.027 5.784-3.13 9.355-2.462 3.564.667 7.567 3.106 11.886 8.212-.01 2.356-.65 4.23-1.725 6.324-.54 1.052-1.19 2.158-1.925 3.408l-.008.016a127.655 127.655 0 0 0-2.44 4.288ZM68.726 136.363c-4.542-.828-6.28-1.419-7.457-1.967-.295-.138-.553-.272-.81-.405-.749-.389-1.486-.771-3.126-1.233-6.93 6.716-8.814 11.301-8.194 14.867.311 1.791 1.257 3.345 2.552 4.804 1.297 1.459 2.933 2.811 4.616 4.202 1.658 1.369 4.421 2.646 7.576 3.382 3.153.736 6.68.928 9.861.143 3.179-.784 6.009-2.541 7.788-5.705 1.776-3.159 2.516-7.738 1.48-14.193-1.751-1.434-3.546-2.088-5.782-2.541-1.124-.228-2.358-.405-3.753-.605l-.017-.002c-1.401-.201-2.963-.425-4.734-.747Z"/><path fill="#fff" stroke="#000" stroke-width=".3" d="M127.614 57.935c7.606 17.028 11.391 33.305 10.102 46.736-1.288 13.422-7.642 23.999-20.325 29.664-12.707 5.676-31.316 7.437-48.649 3.522-17.331-3.914-33.36-13.496-40.946-30.48-15.183-33.992 4.786-70.323 30.199-87.034 12.67-8.331 26.262-7.446 38.596-.224 12.341 7.225 23.42 20.794 31.023 37.816Z"/><path fill="#000" stroke="#000" stroke-width=".3" d="M96.394 74.022c.215.538.327 1.32.314 2.225-.013.903-.15 1.916-.424 2.91-.55 1.994-1.643 3.872-3.353 4.65-1.087.494-2.43-.017-3.757-1.149-1.317-1.124-2.57-2.821-3.448-4.575-1.763-3.524-2.117-6.3-1.592-8.18.262-.938.742-1.653 1.376-2.133.633-.481 1.43-.734 2.334-.734 1.816 0 3.632.94 5.162 2.295 1.529 1.354 2.754 3.105 3.388 4.691ZM80.936 53.047c0 3.702-1.445 8.985-4.13 13.341-2.687 4.359-6.59 7.75-11.49 7.75s-8.722-3.39-11.329-7.748c-2.605-4.355-3.97-9.64-3.97-13.343 0-3.7 1.363-7.931 3.96-11.236 2.594-3.301 6.415-5.672 11.339-5.672s8.826 2.371 11.5 5.674c2.678 3.305 4.12 7.536 4.12 11.234ZM102.46 96.16c-2.92-2.276-7.974-4.386-13.06-4.948-5.089-.563-10.163.428-13.178 4.293-3.013 3.863-2.69 8.962-.858 13.698 1.832 4.732 5.159 9.059 8.08 11.337 2.916 2.275 7.091 3.804 11.294 3.788 4.199-.015 8.418-1.57 11.446-5.452 3.029-3.882 3.559-8.417 2.6-12.558-.959-4.144-3.409-7.883-6.324-10.157Z"/><path stroke="#000" stroke-width=".3" d="M73.532 54.012c0 4.178-3.53 7.575-7.896 7.575-4.367 0-7.896-3.397-7.896-7.575 0-4.177 3.53-7.574 7.896-7.574 4.367 0 7.896 3.397 7.896 7.574ZM99.923 108.403c0 3.994-3.524 7.253-7.897 7.253-4.372 0-7.895-3.259-7.895-7.253 0-3.993 3.523-7.252 7.895-7.252 4.373 0 7.897 3.259 7.897 7.252Z"/><path fill="#fff" stroke="#000" stroke-width=".3" d="M66.45 54.012c0 1.682-1.504 3.069-3.39 3.069-1.886 0-3.39-1.387-3.39-3.069 0-1.681 1.504-3.068 3.39-3.068 1.886 0 3.39 1.387 3.39 3.068ZM93.485 108.725c0 1.682-1.504 3.069-3.39 3.069-1.886 0-3.39-1.387-3.39-3.069 0-1.681 1.504-3.068 3.39-3.068 1.886 0 3.39 1.387 3.39 3.068Z"/><path fill="#000" stroke="#000" stroke-width=".3" d="m191.829 82.187-.181-.038v.185c0 11.588-5.077 17.895-11.004 21.315-5.777 3.333-12.377 3.929-15.913 3.959 7.127-10.163 10.321-16.49 11.524-22.67 1.048-5.378.586-10.636-.077-18.19-.103-1.173-.211-2.401-.319-3.694 2.385-4.572 6.734-6.156 11.07-6.116 4.355.04 8.664 1.72 10.886 3.625l.01.008.011.007c2.151 1.274 4.631 3.652 6.696 6.413 2.064 2.761 3.699 5.887 4.176 8.65.238 1.38.186 2.661-.236 3.76-.421 1.095-1.215 2.02-2.482 2.685-2.546 1.337-7.006 1.629-14.161.101Z"/><circle cx="170.878" cy="110.657" r="6.287" fill="#000" stroke="#000" stroke-width=".3"/><path stroke="#000" stroke-linecap="round" d="M112.851 59.698s12.163 10.324 8.652 17.417c-1.54 3.11-6.967 7.362-6.967 7.362"/></svg>