<svg width="123" height="46" viewBox="0 0 123 46" fill="none" xmlns="http://www.w3.org/2000/svg">
<circle cx="37.7986" cy="2.62944" r="2.62944" fill="black"/>
<path d="M2.58047 38.0777C4.56888 45.4986 13.3869 36.9254 28.2908 32.9319C43.1946 28.9384 56.4241 31.604 54.4357 24.1832C52.4473 16.7623 40.5669 17.5774 25.663 21.5709C10.7592 25.5644 0.592057 30.6569 2.58047 38.0777Z" fill="black"/>
<path d="M100.619 26.9533C100.619 29.9287 99.8625 32.2923 98.4102 34.177C96.9541 36.0666 94.7712 37.5098 91.858 38.5919C86.0241 40.7587 77.3766 41.4371 66.1443 41.4391C53.6615 38.2253 42.3924 38.9687 33.7304 39.54C32.533 39.619 31.3854 39.6947 30.2913 39.7562C25.7521 40.0114 22.2056 40.0155 19.7942 39.0706C18.6068 38.6053 17.7127 37.9156 17.1089 36.919C16.5013 35.9162 16.1654 34.5659 16.1654 32.7436C16.1654 19.1563 26.8576 2.21909 49.1154 2.21909C60.3043 2.21909 73.2225 5.43939 83.3385 10.1778C88.3961 12.5469 92.7335 15.2862 95.7999 18.1753C98.8746 21.0723 100.619 24.0682 100.619 26.9533Z" fill="white" stroke="black" stroke-width="0.8"/>
<path d="M122.783 40.6475C122.783 48.1366 118.286 43.8607 102.856 43.8607C87.4264 43.8607 69.0981 48.1366 69.0981 40.6475C69.0981 33.1584 80.7846 30.9285 96.2143 30.9285C111.644 30.9285 122.783 33.1584 122.783 40.6475Z" fill="black"/>
<path d="M100.707 36.4881C100.707 42.1966 93.5592 43.9195 81.6706 43.1065C76.2962 42.739 70.8939 42.6819 65.5169 43.0113C52.7485 43.7935 43.7246 42.2402 43.7246 36.4881C43.7246 29.5838 56.1291 27.5281 72.5066 27.5281C88.8842 27.5281 100.707 29.5838 100.707 36.4881Z" fill="black"/>
<path d="M23.9134 40.2834C23.9134 47.486 29.7533 43.521 45.1829 43.521C60.6126 43.521 77.5979 47.486 77.5979 40.2834C77.5979 33.0809 65.9114 30.9363 50.4818 30.9363C35.0521 30.9363 23.9134 33.0809 23.9134 40.2834Z" fill="black"/>
<ellipse cx="47.3656" cy="17.2677" rx="9.46416" ry="7.30092" transform="rotate(-43.3242 47.3656 17.2677)" fill="black"/>
<ellipse cx="9.46416" cy="7.30092" rx="9.46416" ry="7.30092" transform="matrix(-0.727484 -0.686125 -0.686125 0.727484 108.987 18.45)" fill="black"/>
<path d="M106.942 32.3754C106.942 36.5472 106.005 39.3357 104.372 41.2044C102.739 43.0742 100.355 44.0857 97.3292 44.5871C94.3 45.089 90.6769 45.0719 86.6133 44.9252C85.4859 44.8846 84.3248 44.8339 83.1348 44.782C80.0495 44.6475 76.7696 44.5045 73.3787 44.5045C69.7348 44.5045 66.2215 44.6942 62.9389 44.8715C61.9853 44.923 61.0512 44.9735 60.139 45.0179C56.0738 45.216 52.4516 45.2941 49.423 44.8328C46.3987 44.3722 44.019 43.3811 42.3873 41.4841C40.7546 39.5858 39.815 36.7154 39.815 32.3754C39.815 26.3301 43.5089 20.8074 49.5839 16.7775C55.6559 12.7496 64.0674 10.2452 73.3787 10.2452C82.6899 10.2452 91.1015 12.7496 97.1735 16.7775C103.248 20.8074 106.942 26.3301 106.942 32.3754Z" fill="white" stroke="black" stroke-width="0.8"/>
<ellipse cx="48.2518" cy="41.7499" rx="4.79278" ry="2.70896" transform="rotate(15 48.2518 41.7499)" fill="#FFEADE"/>
<ellipse cx="101.015" cy="40.0058" rx="4.79278" ry="2.70896" transform="rotate(-30 101.015 40.0058)" fill="#FFEADE"/>
<path d="M83.5955 35.7237C82.1708 29.8196 83.0837 25.3293 88.9643 25.1447C94.845 24.9601 101.748 29.2149 101.932 35.0955C102.117 40.9761 98.6782 44.4213 92.7976 44.6059C89.5707 44.4593 88.2925 43.0388 86.7458 41.3257C85.4399 39.8795 84.6715 38.4165 83.5955 35.7237Z" fill="black"/>
<path d="M62.3834 35.6367C63.7805 29.726 62.8466 25.2401 56.9652 25.083C51.0838 24.9259 44.2009 29.2129 44.0438 35.0943C43.8867 40.9757 47.3416 44.4047 53.223 44.5618C56.4492 44.4002 57.7207 42.9737 59.2594 41.2534C60.5585 39.8011 61.32 38.3345 62.3834 35.6367Z" fill="black"/>
<path d="M56.4942 32.5784C57.0645 33.5661 56.2933 35.079 54.7718 35.9574C53.2503 36.8358 51.5546 36.7472 50.9844 35.7595" stroke="white" stroke-width="0.8" stroke-linecap="round"/>
<path d="M89.4421 32.1817C88.8882 33.141 89.6575 34.622 91.1603 35.4897C92.6632 36.3573 94.3304 36.283 94.8843 35.3237" stroke="white" stroke-width="0.8" stroke-linecap="round"/>
<path d="M70.5432 39.0659C70.5502 37.3207 71.9621 38.0446 73.7073 38.0517C75.4525 38.0588 76.8702 37.3463 76.8631 39.0915C76.8561 40.8367 75.4356 42.2457 73.6904 42.2387C71.9451 42.2316 70.5361 40.8111 70.5432 39.0659Z" fill="black"/>
</svg>
